<svg width="32" height="32" viewBox="0 0 32 32" fill="none" xmlns="http://www.w3.org/2000/svg">
<rect width="32" height="32" rx="16" fill="white"/>
<path d="M9.4085 16.4276L9.40853 16.4276L9.41147 16.4226C9.56163 16.1661 9.69073 15.8206 9.78202 15.489C9.87321 15.1578 9.93996 14.7922 9.93996 14.49V12.63C9.93996 9.27762 12.6648 6.55962 16.0206 6.55C19.3637 6.55037 22.09 9.27588 22.09 12.63V14.5C22.09 14.8024 22.1568 15.1683 22.2496 15.5008C22.3423 15.8325 22.4746 16.1799 22.6322 16.4389C22.6325 16.4394 22.6328 16.4398 22.6331 16.4403L23.7601 18.3154C23.7603 18.3157 23.7605 18.3161 23.7607 18.3164C24.0943 18.8784 24.1572 19.5395 23.932 20.1438C23.7044 20.7447 23.2269 21.2143 22.6008 21.426C21.5447 21.778 20.4614 22.051 19.3706 22.2263L19.3706 22.2262L19.3605 22.2281C19.2466 22.2488 19.1587 22.2644 19.0747 22.2721L19.0561 22.2737L19.0378 22.2768C18.8734 22.3042 18.7069 22.3228 18.5247 22.3431L18.5247 22.3429L18.5124 22.3446C18.3066 22.3726 18.089 22.3917 17.8566 22.4119L17.8566 22.4119L17.8518 22.4123C17.2481 22.4707 16.6342 22.5 16.02 22.5C15.3955 22.5 14.7713 22.4707 14.1574 22.4123L14.1574 22.4121L14.1469 22.4114C13.8903 22.3924 13.6433 22.3639 13.396 22.3258L13.396 22.3257L13.386 22.3244C13.2387 22.3047 13.0942 22.2855 12.9594 22.2663C12.897 22.2552 12.8365 22.2469 12.7866 22.2401L12.7825 22.2396C12.7257 22.2318 12.6817 22.2258 12.6394 22.2181L12.6394 22.218L12.6343 22.2172C11.5456 22.0308 10.4806 21.7765 9.42808 21.4256L9.4245 21.4245C8.76179 21.2091 8.27292 20.7352 8.05892 20.1565L8.05812 20.1544C7.84852 19.5955 7.9163 18.9236 8.2797 18.3056L9.4085 16.4276ZM15.99 15.26C16.6861 15.26 17.25 14.6961 17.25 14V10.9C17.25 10.2039 16.6861 9.64 15.99 9.64C15.2938 9.64 14.73 10.2039 14.73 10.9V14C14.73 14.6961 15.2938 15.26 15.99 15.26Z" fill="#8C8B98" stroke="#8C8B98"/>
<path d="M14.0956 24.6143C14.146 24.6193 14.1967 24.6239 14.2474 24.6282C14.829 24.6792 15.4234 24.71 16.0201 24.71C16.6074 24.71 17.1924 24.6791 17.7645 24.628L17.7645 24.628L17.7675 24.6277C17.8104 24.6237 17.8581 24.6197 17.9086 24.6156C17.4474 25.1572 16.7621 25.5 16.0001 25.5C15.3411 25.5 14.6925 25.2319 14.2399 24.7628L14.2312 24.7538L14.222 24.7452C14.1782 24.7042 14.1361 24.6604 14.0956 24.6143Z" fill="#8C8B98" stroke="#8C8B98"/>
</svg>
