<svg width="32" height="32" viewBox="0 0 32 32" fill="none" xmlns="http://www.w3.org/2000/svg">
<rect width="32" height="32" rx="16" fill="white"/>
<path d="M20.25 7.56V8.01584L20.7039 8.05787C21.9607 8.17424 22.8396 8.60009 23.4285 9.22534C24.0186 9.8518 24.3659 10.7297 24.4607 11.8399C24.4603 11.84 24.4601 11.84 24.46 11.84H24.46H7.54161C7.54098 11.8397 7.54018 11.8392 7.53936 11.8385C7.63436 10.729 7.98156 9.85155 8.57144 9.22534C9.16041 8.60009 10.0393 8.17424 11.2961 8.05787L11.75 8.01584V7.56V6C11.75 5.86614 11.8661 5.75 12 5.75C12.1338 5.75 12.25 5.86614 12.25 6V7.5V8H12.75H19.25H19.75V7.5V6C19.75 5.86614 19.8661 5.75 20 5.75C20.1338 5.75 20.25 5.86614 20.25 6V7.56Z" fill="#8C8B98" stroke="#8C8B98"/>
<path d="M20.0097 24.8044L20.0098 24.8044L20.0056 24.7976C19.6837 24.2755 19.5 23.6563 19.5 23C19.5 21.0661 21.0661 19.5 23 19.5C24.9339 19.5 26.5 21.0661 26.5 23C26.5 23.6563 26.3163 24.2755 25.9944 24.7976L25.9944 24.7975L25.9903 24.8044C25.3871 25.8185 24.2773 26.5 23 26.5C21.7227 26.5 20.6129 25.8185 20.0097 24.8044ZM25.4095 22.9371L25.4096 22.9372L25.4175 22.9295C25.9045 22.4588 25.9502 21.6774 25.4755 21.1688C25.0103 20.6704 24.2148 20.6332 23.7098 21.1036C23.7095 21.1039 23.7092 21.1042 23.7088 21.1045L22.4635 22.2564L22.3236 22.1164C21.8383 21.6312 21.0417 21.6312 20.5564 22.1164C20.0712 22.6017 20.0712 23.3983 20.5564 23.8836L21.5464 24.8736C21.7952 25.1223 22.1145 25.24 22.43 25.24C22.7317 25.24 23.0442 25.1253 23.2798 24.9068C23.28 24.9066 23.2801 24.9065 23.2802 24.9064L25.4095 22.9371Z" fill="#8C8B98" stroke="#8C8B98"/>
<path d="M13.5539 22.573L13.5637 22.5637L13.573 22.5539C13.835 22.2773 14 21.8964 14 21.5C14 21.1036 13.835 20.7227 13.573 20.4461L13.5731 20.446L13.5636 20.4364C13.1438 20.0167 12.4908 19.8796 11.9309 20.117C11.7328 20.1948 11.5842 20.3026 11.4555 20.4184L11.4407 20.4317L11.427 20.4461C11.165 20.7227 11 21.1036 11 21.5C11 21.8964 11.165 22.2773 11.427 22.5539L11.4363 22.5637L11.4461 22.573C11.7227 22.835 12.1036 23 12.5 23C12.8964 23 13.2773 22.835 13.5539 22.573ZM13.5223 19.1004L13.5493 19.0789L13.573 19.0539C13.835 18.7773 14 18.3964 14 18C14 17.6036 13.835 17.2227 13.573 16.9461L13.5493 16.9211L13.5223 16.8996L13.4473 16.8396L13.3723 16.7796L13.3554 16.766L13.3374 16.754C13.2552 16.6992 13.1668 16.6525 13.0721 16.6176C12.9845 16.5768 12.8915 16.5462 12.7936 16.5288C12.2976 16.4273 11.7812 16.5917 11.4364 16.9364L11.4363 16.9363L11.427 16.9461C11.165 17.2227 11 17.6036 11 18C11 18.3964 11.165 18.7773 11.427 19.0539L11.4363 19.0637L11.4461 19.073C11.7227 19.335 12.1036 19.5 12.5 19.5C12.5967 19.5 12.6981 19.4854 12.7596 19.4766C12.7635 19.476 12.7672 19.4755 12.7707 19.475L12.7707 19.4751L12.7822 19.4732C12.8843 19.4562 12.9811 19.4247 13.0721 19.3824C13.1668 19.3475 13.2552 19.3008 13.3374 19.246L13.3554 19.234L13.3723 19.2204L13.4473 19.1604L13.5223 19.1004ZM17.0539 19.073L17.0637 19.0637L17.073 19.0539C17.335 18.7773 17.5 18.3964 17.5 18C17.5 17.6036 17.335 17.2227 17.073 16.9461L17.0731 16.946L17.0636 16.9364C16.4957 16.3686 15.5127 16.3753 14.9412 16.9318L14.934 16.9388L14.927 16.9461C14.665 17.2227 14.5 17.6036 14.5 18C14.5 18.3964 14.665 18.7773 14.927 19.0539L14.9363 19.0637L14.9461 19.073C15.2227 19.335 15.6036 19.5 16 19.5C16.3964 19.5 16.7773 19.335 17.0539 19.073ZM8 14.34H24C24.2679 14.34 24.5028 14.5613 24.51 14.8551V16.59C24.51 16.8836 24.2441 17.1171 23.9497 17.0763C23.6369 17.0211 23.3195 17 23.01 17C19.7039 17 17.01 19.6939 17.01 23C17.01 23.5494 17.2053 24.2568 17.4068 24.8414C17.5158 25.1659 17.2783 25.5 16.93 25.5H12C10.3453 25.5 9.24565 25.0297 8.5539 24.2848C7.85591 23.5331 7.5 22.4233 7.5 21V14.84C7.5 14.5661 7.72614 14.34 8 14.34Z" fill="#8C8B98" stroke="#8C8B98"/>
</svg>
