<svg width="32" height="32" viewBox="0 0 32 32" fill="none" xmlns="http://www.w3.org/2000/svg">
<rect width="32" height="32" rx="16" fill="white"/>
<path d="M13.6993 23.039L13.6993 23.039L13.6956 23.0343C13.5528 22.8494 13.3535 22.7065 13.1611 22.6103C12.9696 22.5145 12.7347 22.44 12.5 22.44H11C8.51418 22.44 6.5 20.4319 6.5 17.96V16.96V10.98C6.5 8.5081 8.51418 6.5 11 6.5H21C23.4858 6.5 25.5 8.5081 25.5 10.98V17.96C25.5 20.4319 23.4858 22.44 21 22.44H19.5C19.0314 22.44 18.585 22.6649 18.3019 23.0375L18.3007 23.039L16.8007 25.029L16.8 25.03C16.5506 25.3626 16.2559 25.49 16 25.49C15.7441 25.49 15.4494 25.3626 15.2 25.03L15.1993 25.029L13.6993 23.039ZM10.5 15C10.5 15.8229 11.1606 16.5 12 16.5C12.8394 16.5 13.5 15.8229 13.5 15C13.5 14.1739 12.8261 13.5 12 13.5C11.1739 13.5 10.5 14.1739 10.5 15ZM14.5 15C14.5 15.8229 15.1606 16.5 16 16.5C16.8394 16.5 17.5 15.8229 17.5 15C17.5 14.1739 16.8261 13.5 16 13.5C15.1739 13.5 14.5 14.1739 14.5 15ZM18.5 15C18.5 15.8229 19.1606 16.5 20 16.5C20.8394 16.5 21.5 15.8229 21.5 15C21.5 14.1739 20.8261 13.5 20 13.5C19.1739 13.5 18.5 14.1739 18.5 15Z" fill="#8C8B98" stroke="#8C8B98"/>
</svg>
